<svg viewBox="0 0 13 14" fill="none" xmlns="http://www.w3.org/2000/svg">
  <title>Reflective Logo</title>
  <path
    d="M6.65161 0C3.0708 0 0.167969 3.00099 0.167969 6.70291V13.6194C0.167969 13.8296 0.332004 13.9999 0.534351 13.9999H6.10336C6.30571 13.9999 6.46975 13.8296 6.46975 13.6194V7.91298C6.46975 7.03053 7.15869 6.31516 8.00855 6.31516H12.5587C12.878 6.31516 13.0445 5.92077 12.8282 5.67698L8.53639 0.839132C8.06448 0.304443 7.35008 0 6.65161 0Z" />
  <path
    d="M8.25037 7.78363C8.04802 7.78363 7.88398 7.95395 7.88398 8.16406V13.6188C7.88398 13.9763 8.31592 14.1364 8.53394 13.8597L12.8316 8.40495C13.0273 8.15655 12.8571 7.78363 12.548 7.78363H8.25037Z" />
</svg>