<svg xmlns="http://www.w3.org/2000/svg" viewBox="0 0 16 16" fill="none">
  <path
    d="M7.65736 0C3.42832 0 0 3.42081 0 7.64059V15.5247C0 15.7642 0.19373 15.9584 0.432708 15.9584H7.00986C7.24884 15.9584 7.44257 15.7642 7.44257 15.5247V9.01994C7.44257 8.01404 8.25624 7.19861 9.25994 7.19861H14.6338C15.0108 7.19861 15.2075 6.74904 14.9521 6.47115L9.88333 0.95652C9.326 0.347033 8.48227 0 7.65736 0Z"
    fill="#505FEB" />
  <path
    d="M9.54553 8.8725C9.30655 8.8725 9.11282 9.06665 9.11282 9.30615V15.524C9.11282 15.9315 9.62295 16.114 9.88044 15.7986L14.9561 9.58073C15.1872 9.29759 14.9862 8.8725 14.6212 8.8725H9.54553Z"
    fill="#505FEB" />
</svg>